<?xml version="1.0" encoding="UTF-8" standalone="no"?>
<!-- Created with Inkscape (http://www.inkscape.org/) -->

<svg
   version="1.1"
   id="svg1"
   width="1080"
   height="1017"
   viewBox="0 0 1080 1017"
   sodipodi:docname="logoterciario.svg"
   inkscape:version="1.4.2 (f4327f4, 2025-05-13)"
   xmlns:inkscape="http://www.inkscape.org/namespaces/inkscape"
   xmlns:sodipodi="http://sodipodi.sourceforge.net/DTD/sodipodi-0.dtd"
   xmlns="http://www.w3.org/2000/svg"
   xmlns:svg="http://www.w3.org/2000/svg">
  <defs
     id="defs1" />
  <sodipodi:namedview
     id="namedview1"
     pagecolor="#ffffff"
     bordercolor="#000000"
     borderopacity="0.25"
     inkscape:showpageshadow="2"
     inkscape:pageopacity="0.0"
     inkscape:pagecheckerboard="0"
     inkscape:deskcolor="#d1d1d1"
     inkscape:zoom="0.79351032"
     inkscape:cx="422.17472"
     inkscape:cy="437.92751"
     inkscape:window-width="1920"
     inkscape:window-height="1009"
     inkscape:window-x="-8"
     inkscape:window-y="-8"
     inkscape:window-maximized="1"
     inkscape:current-layer="g1" />
  <g
     inkscape:groupmode="layer"
     inkscape:label="Image"
     id="g1">
    <path
       style="fill:#000000"
       d="m 522.26023,1006.6826 c -20.95141,-0.7229 -28.84895,-1.4536 -41.5,-3.8396 -2.75,-0.5187 -8.61796,-0.9699 -13.0399,-1.0027 -4.42195,-0.033 -10.49695,-0.687 -13.5,-1.4539 -3.00306,-0.76695 -8.62609,-1.91635 -12.49563,-2.55425 -14.91618,-2.45903 -55.40723,-13.91287 -84.96447,-24.03417 -28.10879,-9.62531 -71.12364,-28.89777 -86.50351,-38.75721 -16.95693,-10.87043 -37.49969,-25.0563 -41.99649,-29.00082 -2.475,-2.17102 -8.84399,-6.94715 -14.15331,-10.61361 -5.30932,-3.66646 -11.83432,-8.58054 -14.5,-10.92016 -2.66568,-2.33962 -7.54669,-6.47101 -10.84669,-9.18086 -9.03856,-7.42215 -33.45072,-31.61684 -44.47939,-44.08314 -14.04049,-15.87072 -40.24535,-51.08307 -49.185917,-66.09277 -4.21592,-7.07781 -15.50953,-28.39375 -25.09692,-47.36875 -9.58739,-18.975 -19.31182,-37.56391 -21.60984,-41.30869 -2.29802,-3.74478 -4.79776,-8.46978 -5.55498,-10.5 -0.75721,-2.03022 -2.77916,-7.1778 -4.49322,-11.43907 -3.4926,-8.68285 -11.33227,-39.64698 -13.49751,-53.31075 -0.77931,-4.91782 -1.87597,-11.64149 -2.43703,-14.94149 -1.77615,-10.44687 -3.07799,-22.39392 -4.74007,-43.5 -1.93765,-24.60538 -1.38077,-69.18678 1.07426,-86 0.84325,-5.775 1.96186,-13.65 2.4858,-17.5 3.51669,-25.84117 9.23473,-53.05732 14.52464,-69.13282 6.66552,-20.25588 29.32036,-65.47806 56.29231,-112.36718 17.733177,-30.82808 25.071897,-40.86274 51.284827,-70.12467 24.918,-27.8164 49.0024,-50.06455 77.43304,-71.52937 48.74803,-36.804218 84.58341,-55.764107 140.5,-74.33615 20.50521,-6.810567 47.25136,-15.152837 56.02011,-17.472976 10.9105,-2.886832 39.88625,-8.874629 53.70989,-11.099073 67.68471,-10.8915514 151.71145,-4.9012931 225.19319,16.054001 17.28716,4.929902 24.71477,7.547739 66.07681,23.28857 19.25509,7.327758 33.81299,14.37823 45.71279,22.138949 5.0429,3.288862 10.8831,6.8641 12.9781,7.944973 10.4334,5.382867 47.7828,28.955846 54.8091,34.592676 8.1795,6.56195 14.5152,12.27857 46.5959,42.04307 22.1955,20.59298 30.3133,28.66522 33.2091,33.02274 1.2073,1.81662 6.7351,9.30467 12.284,16.6401 16.6926,22.06684 41.25578,60.00969 50.11918,77.41934 9.8884,19.42295 12.1439,24.94161 15.7014,38.41782 1.5246,5.775 4.0145,15 5.5331,20.5 1.5187,5.5 3.7807,13.825 5.0265,18.5 1.2459,4.675 3.5612,13 5.145,18.5 10.9292,37.95154 19.1217,103.4077 17.4599,139.5 -1.7721,38.48795 -11.335,94.24776 -21.5236,125.5 -5.5601,17.05497 -8.4974,27.21987 -11.9428,41.32905 -2.0939,8.57459 -4.864,16.28151 -9.0968,25.30826 -3.3473,7.13855 -6.9585,15.19264 -8.0248,17.89796 -2.8374,7.19842 -12.0033,24.69173 -15.9625,30.46473 -1.88598,2.75 -6.48788,8.93106 -10.22628,13.73568 -3.7385,4.80462 -6.7973,9.01273 -6.7973,9.35134 0,0.80601 -24.2717,33.30028 -33.723,45.14739 -6.3638,7.97683 -29.3659,30.09434 -32.3637,31.11906 -0.5688,0.19441 -3.3954,2.66941 -6.2814,5.5 -10.6478,10.4433 -21.1944,19.87289 -23.3819,20.90547 -1.2375,0.58415 -2.25,1.68003 -2.25,2.4353 0,0.75527 -1.575,2.30248 -3.5,3.43826 -1.925,1.13578 -3.5,2.4706 -3.5,2.96628 0,0.49567 -0.6375,0.90122 -1.4167,0.90122 -0.7791,0 -1.5666,0.34085 -1.75,0.75744 -0.9706,2.20551 -15.2948,12.05443 -27.2455,18.73314 -3.8016,2.12461 -9.1344,5.35839 -11.8504,7.18618 -2.7161,1.82778 -5.3862,3.32324 -5.9335,3.32324 -0.5473,0 -2.1896,0.84681 -3.6495,1.88181 -1.4599,1.03499 -10.0794,6.36438 -19.1544,11.84308 -17.7911,10.74073 -28.9834,16.15195 -44.7821,21.65112 -5.52915,1.92457 -11.94315,4.4635 -14.25333,5.64207 -6.88576,3.51285 -43.06987,15.14827 -60.46456,19.44308 -5.5,1.35797 -12.475,3.20811 -15.5,4.11144 -16.30422,4.86874 -64.28551,12.27224 -86.5,13.34694 -6.6,0.3193 -12.52407,0.9208 -13.16459,1.3367 -0.64052,0.416 -1.32118,0.2865 -1.51258,-0.2877 -0.2413,-0.7239 -3.10329,-0.7283 -9.33541,-0.014 -4.94308,0.5662 -10.78742,0.9608 -12.98742,0.8768 -2.2,-0.084 -14.125,-0.502 -26.5,-0.929 z m 26.12756,-38.55456 c 1.57662,-1.89847 2.08099,-33.8968 0.86752,-55.03751 -0.38484,-6.70458 -0.42107,-13.90458 -0.0805,-16 l 0.61918,-3.80987 7.81046,-1.64833 c 4.98737,-1.05254 8.66738,-2.45337 10.18125,-3.87558 3.21139,-3.01694 4.0757,-7.40968 2.06247,-10.48225 l -1.58884,-2.42488 -18.24954,0.36454 c -10.03725,0.2005 -21.10351,-0.0774 -24.5917,-0.61762 -10.73259,-1.66209 -15.7076,1.89405 -14.54243,10.39492 l 0.62357,4.54941 8.38838,2.21597 c 4.61361,1.21879 9.28456,2.96024 10.3799,3.8699 3.37101,2.79956 4.114,10.79001 3.82672,41.15392 -0.1483,15.675 0.0994,29.09403 0.55051,29.82008 2.02253,3.25533 11.43893,4.3018 13.74307,1.5273 z m 63.85435,-4.33815 c 8.08173,-4.12299 12.49261,-14.22297 10.92341,-25.0123 -0.43971,-3.02331 -0.96899,-9.09693 -1.17619,-13.49693 -0.54148,-11.49888 -2.83563,-17.36485 -9.11327,-23.30198 -5.71899,-5.40878 -10.92001,-6.96661 -18.94935,-5.67578 -8.54913,1.37439 -18.51796,9.67932 -20.59439,17.15698 -1.34213,4.83331 -1.37519,16.4239 -0.0668,23.43429 2.22969,11.94709 10.99879,24.29856 19.35412,27.26068 6.15879,2.1834 14.94772,2.01994 19.62251,-0.36496 z M 595.3041,946.97838 c -4.12909,-4.12909 -3.97239,-7.28675 0.54644,-11.01155 7.83185,-6.45567 20.49607,-5.33144 18.43731,1.63672 -2.34807,7.94734 -5.12179,10.68881 -11.91335,11.77483 -3.58046,0.57254 -4.36374,0.30666 -7.0704,-2.4 z m -4.41239,-23.47792 c -1.18905,-0.86946 -1.77031,-2.69606 -1.81168,-5.69317 -0.0772,-5.59389 2.5388,-8.02663 8.63127,-8.02663 3.73795,0 4.53615,0.43097 6.86793,3.70821 l 2.63843,3.7082 -2.17,2.30986 c -1.1935,1.27042 -4.4156,2.97673 -7.16022,3.7918 -5.94419,1.76523 -4.89874,1.73508 -6.99573,0.20173 z m -137.27046,34.2802 c 0.72514,0 1.69345,-3.15223 2.45497,-7.9919 0.69163,-4.39555 3.40613,-13.95805 6.03221,-21.25 2.62608,-7.29196 5.80783,-17.0831 7.07056,-21.7581 1.26272,-4.675 3.13642,-11.2 4.16377,-14.5 2.89717,-9.3061 4.83959,-18.53939 4.2328,-20.12065 -0.87202,-2.27245 -3.88687,-3.41504 -7.24094,-2.74423 -4.9374,0.98748 -8.49726,6.00688 -10.98226,15.48499 -2.47114,9.42524 -13.87569,43.97688 -17.76743,53.82888 -1.40111,3.54694 -3.73486,8.58331 -5.18609,11.19193 -2.15996,3.88256 -2.40393,4.97909 -1.34492,6.04471 1.4351,1.44404 9.72221,1.73152 12.45631,0.4321 1.30949,-0.62235 1.75,-0.40027 1.75,0.88227 0,1.15208 0.51856,1.51499 1.58179,1.10699 0.86998,-0.33385 2.12064,-0.60699 2.77923,-0.60699 z m 207.96828,-4.81138 c 1.85284,-2.04736 1.70262,-2.80661 -3.10395,-15.68862 -6.55782,-17.57548 -6.34961,-25.8823 0.82152,-32.77475 6.51529,-6.2621 8.22823,-11.24129 5.93879,-17.26296 l -1.01434,-2.66791 -8.17821,0.72393 c -4.7194,0.41777 -8.76139,1.30711 -9.55709,2.10282 -0.75838,0.75838 -2.35923,1.38055 -3.55745,1.38261 -3.97536,0.007 -8.33595,3.49617 -8.92484,7.14167 -0.86519,5.35595 0.77151,17.40036 4.12486,30.35459 1.70849,6.6 3.11656,13.125 3.12905,14.5 0.0444,4.89164 2.58811,11.21239 5.06419,12.58403 3.72985,2.06617 13.25312,1.81937 15.25747,-0.39541 z m -244.74997,-8.26315 c 1.35015,-1.26839 3.79648,-4.9911 5.43631,-8.27267 2.95546,-5.9144 2.96386,-5.97885 0.96277,-7.38048 -1.76975,-1.23958 -2.75675,-1.15856 -8.00255,0.65685 -7.75856,2.68502 -11.2272,2.61887 -14.59537,-0.27831 -2.30709,-1.98448 -2.80194,-3.3293 -3.18776,-8.66314 l -0.45671,-6.31399 3.38199,2.05058 c 7.43634,4.50882 26.27277,7.85612 29.436,5.23087 0.8811,-0.73125 2.7717,-3.60782 4.20133,-6.39237 2.11966,-4.12852 2.57958,-6.35458 2.49232,-12.06281 -0.13464,-8.80741 -0.86132,-10.66597 -7.08026,-18.10864 -5.4419,-6.51272 -9.26606,-8.39136 -17.08146,-8.39136 -8.4227,0 -21.73575,11.67357 -27.37066,24 -2.61986,5.73098 -2.98584,7.6831 -3.09335,16.5 -0.20212,16.57667 4.1395,23.72557 17.10228,28.16055 8.27849,2.83234 14.32265,2.5835 17.85512,-0.73508 z m -17.56402,-36.20871 c -0.008,-0.43079 1.11366,-3.01117 2.49352,-5.73418 2.54602,-5.02433 7.98399,-8.98258 12.34055,-8.98258 5.57851,0 9.19842,8.88557 5.31713,13.05164 -1.98585,2.13156 -2.39679,2.17766 -10.35612,1.16156 -6.23978,-0.79658 -8.47254,-0.76832 -9.03399,0.11436 -0.41018,0.64484 -0.75267,0.81998 -0.76109,0.3892 z m 318.01054,31.37337 c 14.01256,-5.24631 20.63783,-17.29137 15.30496,-27.82514 -1.29937,-2.5666 -2.89126,-4.99333 -3.53752,-5.39274 -2.00492,-1.23911 -6.02044,1.67367 -13.16704,9.55108 -3.78056,4.16717 -7.61016,7.57667 -8.51022,7.57667 -2.85939,0 -6.93784,-4.78579 -10.64269,-12.48849 -5.62107,-11.68669 -5.47679,-16.21833 0.66144,-20.77434 2.4468,-1.8161 3.24923,-1.87386 11.24692,-0.80957 9.69579,1.29027 12.19138,0.62157 13.23764,-3.54706 1.07046,-4.26505 -1.19516,-9.61864 -5.22382,-12.3437 -2.94663,-1.99317 -5.09679,-2.51447 -11.26849,-2.73205 -4.19487,-0.14789 -9.0618,0.19878 -10.8154,0.77038 -4.63773,1.51168 -11.12852,8.28317 -14.04394,14.65129 -2.36159,5.15839 -2.50113,6.30527 -2.03961,16.76352 0.40477,9.17208 0.9516,12.21293 2.98842,16.61816 3.09523,6.69437 10.74324,16.03976 15.61354,19.07877 6.69287,4.17627 10.94571,4.36647 20.19581,0.90322 z m 44.25627,-20.43523 c 7.09667,-2.96644 7.89177,-8.67397 2.71779,-19.50776 -1.87733,-3.93093 -3.71107,-7.14714 -4.07497,-7.14714 -0.81351,0 -11.02045,-20.70172 -13.45971,-27.29901 -0.97591,-2.63945 -2.71732,-5.57203 -3.8698,-6.51685 -2.62044,-2.14825 -4.76592,-6.63648 -7.62777,-15.95693 -1.578,-5.13923 -3.09677,-7.99951 -5.17711,-9.75 -3.50397,-2.94839 -3.76381,-2.97346 -7.65767,-0.73869 -4.20013,2.41054 -5.5202,5.61347 -3.734,9.05992 2.09979,4.05151 9.57156,12.20156 11.18611,12.20156 1.52732,0 1.95461,1.62012 0.57142,2.16667 -1.33996,0.52946 0.43308,13.71676 2.09952,15.61559 0.82913,0.94476 1.82999,2.84274 2.22413,4.21774 0.39414,1.375 2.38629,5.875 4.42699,10 2.04071,4.125 4.53826,10.2 5.55013,13.5 3.04459,9.9294 6.06416,15.91944 9.46929,18.78467 3.77011,3.17235 3.26814,3.07884 7.35565,1.37023 z m -413.61601,-3.13359 c 1.16112,-0.81328 3.74211,-3.93587 5.73554,-6.9391 1.99343,-3.00323 5.30605,-7.01575 7.36138,-8.91671 15.11175,-13.97678 28.29094,-27.38157 29.28849,-29.78987 1.68883,-4.07721 -0.84751,-7.87563 -5.25885,-7.87563 -4.15641,0 -11.25155,3.49585 -13.87696,6.83732 -4.27084,5.43568 -12.37137,13.71549 -15.01143,15.34368 -1.49914,0.92456 -3.02121,2.61206 -3.38238,3.75 -1.15645,3.64366 -2.82361,2.35892 -2.18136,-1.681 2.39634,-15.07354 3.78465,-30.09246 3.20817,-34.70643 -0.6569,-5.25766 -0.72295,-5.34535 -4.35786,-5.78601 -7.44491,-0.90253 -9.24305,1.38179 -11.21116,14.24244 -0.63126,4.125 -1.54502,9.525 -2.03056,12 -0.48555,2.475 -1.15874,7.2 -1.49598,10.5 -0.33724,3.3 -1.28342,10.03785 -2.10261,14.973 -2.22957,13.43176 -1.2474,16.20027 6.59106,18.57877 4.01094,1.21708 6.44044,1.06937 8.72451,-0.53046 z m 452.03628,-14.84739 c 4.7865,-1.75466 24.1568,-18.26483 24.8992,-21.22268 0.7075,-2.81876 -0.6803,-6.69041 -5.0007,-13.95124 -15.5809,-26.1853 -24.22,-35.50235 -32.916,-35.49921 -3.9347,0.001 -14.068,5.63453 -20.0051,11.12087 -6.31323,5.83386 -7.649,9.05592 -6.89365,16.62834 0.36713,3.68057 0.74035,4.25 2.78552,4.25 1.38656,0 4.48343,-1.88454 7.50093,-4.56449 7.0024,-6.21913 12.6935,-8.88957 17.1595,-8.05175 3.7522,0.70391 8.4492,4.61624 5.5421,4.61624 -2.4347,0 -15.046,13.03247 -17.5242,18.10953 -5.3857,11.03366 -0.054,22.73048 12.932,28.37102 3.9657,1.72248 7.201,1.77678 11.5204,0.19337 z m -9.3644,-14.67255 c -1.1892,-0.47952 -2.4592,-1.80806 -2.8224,-2.95231 -1.7201,-5.41939 7.046,-20.10693 11.9569,-20.03375 3.7752,0.0563 5.9932,7.31204 4.2885,14.02834 -1.0697,4.21428 -5.1821,9.43214 -6.6963,8.49633 -0.5096,-0.31493 -1.2091,-0.11526 -1.5546,0.44371 -0.7437,1.20335 -2.2194,1.20839 -5.1721,0.0177 z m -487.84155,3.40442 c 1.16265,-1.35306 3.62653,-5.03538 5.4753,-8.18295 1.84877,-3.14756 7.55585,-12.51698 12.68239,-20.82094 10.05832,-16.29242 12.34587,-20.90972 12.34587,-24.91944 0,-4.02506 2.7349,-8.33802 6.27391,-9.894 1.77435,-0.78012 4.46352,-2.46917 5.97593,-3.75343 2.39964,-2.03766 2.66858,-2.81844 2.11172,-6.13086 -0.89095,-5.29978 -4.98782,-7.47766 -10.58902,-5.6291 -4.38667,1.44773 -6.77254,4.96752 -6.77254,9.99129 0,3.13956 -6.11651,12.93364 -8.0772,12.93364 -0.49877,0 -3.04795,3.25781 -5.66483,7.23959 -2.61688,3.98177 -6.92973,9.94427 -9.58409,13.25 -2.65437,3.30572 -5.53239,7.36041 -6.3956,9.01041 -0.86322,1.65 -4.20396,6.95217 -7.42388,11.7826 -6.15024,9.22642 -7.0046,12.36651 -4.08384,15.00976 4.6548,4.21254 10.1645,4.25807 13.72588,0.11343 z m -26.49644,-27.0188 c 4.675,-5.82394 10.47983,-13.13103 12.89962,-16.23799 2.41979,-3.10695 6.02829,-7.449 8.01889,-9.649 1.9906,-2.2 6.50363,-8.05 10.02896,-13 3.52533,-4.95 8.57933,-11.33556 11.23111,-14.19014 5.14001,-5.53309 5.78381,-7.91143 3.20641,-11.84504 -2.79765,-4.26975 -9.57394,-2.84843 -16.03881,3.36412 -1.1846,1.13837 -6.06136,7.2722 -10.83724,13.63073 -9.07231,12.07872 -13.95694,17.54033 -15.68735,17.54033 -1.10631,0 -0.34482,-10.99388 1.31604,-19 0.51343,-2.475 1.19007,-6.525 1.50364,-9 0.31357,-2.475 2.06932,-9.01091 3.90167,-14.52425 3.2497,-9.778 3.29416,-10.1378 1.80981,-14.64658 -1.51293,-4.59559 -6.55989,-10.84942 -8.72141,-10.80693 -0.62224,0.0122 -2.16929,0.82086 -3.4379,1.79696 -2.32117,1.78597 -2.83156,2.52117 -6.93641,9.99157 -1.23363,2.24509 -2.90029,4.44983 -3.70368,4.89944 -0.8034,0.4496 -3.39407,3.34271 -5.75704,6.42912 -5.69207,7.43475 -17.32622,21.75022 -27.70388,34.08879 -7.46408,8.87445 -8.4587,10.52837 -8.86322,14.73824 -0.62689,6.52419 0.88674,9.03364 5.44883,9.03364 4.39538,0 8.59019,-4.0304 21.32196,-20.48631 4.675,-6.04247 10.1875,-12.73423 12.25,-14.87058 l 3.75,-3.88427 v 5.13802 c 0,5.47436 -3.16882,21.50501 -5.61932,28.42742 -2.65114,7.48922 -5.47736,21.95907 -4.84835,24.82294 0.99292,4.52071 5.70846,8.8548 9.61888,8.84076 3.04756,-0.0109 4.11337,-0.9645 11.84879,-10.60099 z m 573.99999,3.67943 c 0,-0.51347 1.2375,-1.07597 2.75,-1.25 5.5344,-0.6368 4.2124,-9.26267 -2.6153,-17.06509 -2.6533,-3.03212 -5.8819,-7.25408 -7.1746,-9.38214 -1.2927,-2.12805 -2.9507,-4.23638 -3.6843,-4.68517 -3.0574,-1.8702 -6.6296,-9.16651 -6.4032,-13.0785 0.305,-5.26732 4.1437,-12.3965 10.1804,-18.90689 l 2.5385,-2.7376 3.7835,2.82106 c 2.0809,1.55157 5.1248,4.82284 6.7642,7.26948 6.1838,9.22894 25.9284,29.94843 28.5393,29.94843 1.8291,0 5.5875,-1.94886 6.5562,-3.3997 1.2159,-1.821 0.7963,-7.97547 -0.6761,-9.91786 -2.7149,-3.58134 -10.1874,-11.95709 -17.5722,-19.69638 -4.1326,-4.33087 -8.6326,-9.73433 -10,-12.00769 -8.0198,-13.33236 -8.1374,-13.45579 -13.1304,-13.77883 -3.8233,-0.24737 -5.125,0.14528 -7.3655,2.22172 -2.1108,1.95623 -2.578,3.0941 -2.0818,5.07098 0.3519,1.40184 0.197,3.37608 -0.3442,4.3872 -0.5411,1.01113 -6.1579,4.41222 -12.4817,7.55798 -6.3238,3.14577 -11.7566,6.47175 -12.0728,7.39108 -0.3162,0.91932 -1.984,2.5715 -3.7064,3.6715 -1.7223,1.1 -3.5682,2.70879 -4.1021,3.57509 -1.6122,2.61624 4.3585,13.55472 11.4924,21.05439 3.4683,3.64622 8.2348,9.04622 10.5921,12 2.3573,2.95379 5.8448,7.3256 7.75,9.71513 1.9052,2.38954 3.464,4.70792 3.464,5.15197 0,0.77882 6.7201,4.79986 8.25,4.93646 0.4125,0.0368 0.75,-0.35315 0.75,-0.86662 z M 592.26023,826.30396 c 7.425,-0.8004 15.975,-2.10277 19,-2.89415 3.025,-0.79138 10.225,-2.39666 16,-3.5673 13.47906,-2.7323 34.30868,-9.49551 50.5,-16.39693 12.07752,-5.14795 38.40504,-18.69663 42.67252,-21.96015 2.56989,-1.9653 6.16989,-4.34395 8,-5.28589 13.52179,-6.95948 41.26377,-29.16743 55.32747,-44.29056 3.85,-4.14004 8.35,-8.91909 10,-10.62013 5.5343,-5.70542 24.4918,-30.62417 33.1,-43.50819 9.3643,-14.0159 24.3146,-43.34562 29.5643,-58 3.5583,-9.93295 10.6639,-35.33485 12.2577,-43.82013 1.7452,-9.29152 3.8661,-23.64892 5.7139,-38.67987 2.3303,-18.95622 1.0716,-65.528 -2.2568,-83.5 -3.7418,-20.20439 -10.4263,-44.39671 -15.3321,-55.48958 -1.4008,-3.16761 -2.547,-6.17967 -2.547,-6.69347 0,-1.21456 -14.5662,-30.84642 -20.5561,-41.81695 -2.5525,-4.675 -6.7341,-11.35928 -9.2924,-14.85395 -2.5583,-3.49467 -7.4581,-10.37693 -10.8884,-15.29392 -9.3414,-13.38998 -19.2165,-24.99469 -32.6713,-38.39376 -13.6918,-13.63498 -22.34598,-20.75569 -39.8838,-32.81647 -46.37411,-31.89152 -89.31297,-49.72201 -135.20799,-56.14552 -9.9,-1.38561 -19.35,-2.74697 -21,-3.02524 -11.379,-1.91906 -49.65281,-2.21767 -65.5,-0.51104 -9.03226,0.97272 -21.01111,2.77806 -30,4.52132 -1.375,0.26667 -3.85,0.73634 -5.5,1.04372 -23.33309,4.34678 -63.16589,18.40024 -85.5,30.16536 -10.765,5.67076 -33.19643,20.27436 -43,27.9944 -3.025,2.38211 -8.79622,6.915 -12.82493,10.0731 -11.15271,8.74258 -41.65637,39.34533 -45.94767,46.09693 -0.92466,1.45479 -1.91844,2.87007 -2.20839,3.14507 -3.34559,3.17307 -18.78463,24.27113 -21.85222,29.86192 -19.83228,36.145 -26.8685,52.32946 -32.44905,74.63808 -0.27516,1.1 -1.87425,7.175 -3.55353,13.5 -7.06476,26.60946 -9.56334,48.42048 -9.5654,83.5 -0.001,24.73529 0.22073,28.27101 2.64898,42.15302 6.31345,36.09322 12.11826,55.42937 24.88241,82.88466 19.92835,42.86525 35.71972,65.69554 66.73495,96.48169 28.08265,27.87523 52.37801,45.08524 87.61499,62.06353 23.50976,11.32775 43.32594,18.00172 68.01986,22.90871 2.2,0.43717 8.21413,1.73668 13.36474,2.88779 5.1506,1.15112 13.0256,2.38981 17.5,2.75264 4.47439,0.36284 9.03526,1.01554 10.13526,1.45045 3.61745,1.43023 59.96874,1.00727 74.5,-0.55919 z m -76,-18.5145 c -15.73138,-1.90093 -26.49948,-3.58624 -32,-5.00828 -1.925,-0.49767 -7.325,-1.86122 -12,-3.03011 -27.92012,-6.98085 -67.7371,-24.94477 -96,-43.31158 -19.96761,-12.97607 -53.67618,-45.98827 -71.12825,-69.65883 -16.75401,-22.72378 -31.33586,-48.22556 -38.3104,-67 -14.82356,-39.9028 -19.82069,-64.05175 -21.21026,-102.5 -1.42158,-39.33397 5.02854,-77.66593 20.12771,-119.61547 5.39614,-14.99192 19.58795,-41.64716 30.02936,-56.40152 19.59305,-27.68619 55.07824,-63.33903 82.67689,-83.06748 10.43981,-7.46274 43.49639,-24.27013 64.31495,-32.7005 8.33074,-3.37349 20.60501,-7.21404 29.5,-9.23037 4.125,-0.93506 9.075,-2.10496 11,-2.59978 7.70309,-1.98008 27.40703,-4.9063 43.5,-6.46015 24.28451,-2.34478 54.72296,-0.60258 80.5,4.60756 11.01201,2.22579 35.59309,8.22363 36.5,8.90608 0.55,0.41388 7.51002,3.14132 15.46671,6.06098 17.29383,6.34586 40.98358,17.95387 57.70358,28.27481 14.23778,8.78872 17.72645,11.37781 31.4207,23.31862 16.94337,14.7739 22.6741,20.35958 33.7619,32.90722 5.8321,6.6 10.8595,12.225 11.1721,12.5 1.354,1.19122 9.9417,12.96557 13.1284,18 6.3777,10.07545 18.8014,32.65342 23.4621,42.63835 5.5177,11.8208 14.1743,36.85214 17.7625,51.36165 6.1793,24.98709 10.2396,62.39299 9.0633,83.49717 -1.0025,17.98861 -5.283,47.9116 -9.084,63.50283 -2.2774,9.34141 -4.6951,16.21298 -14.0737,40 -4.1565,10.54223 -12.4461,26.56293 -21.1498,40.87465 -4.4736,7.35606 -8.1338,13.99356 -8.1338,14.75 0,0.75644 -0.4114,1.37535 -0.9142,1.37535 -0.5028,0 -2.2383,2.1375 -3.8566,4.75 -3.1271,5.04821 -29.0724,32.55971 -45.72919,48.48963 -15.1721,14.51001 -22.18853,20.4363 -28.37239,23.96417 -3.09519,1.7658 -6.07761,3.594 -6.62761,4.06267 -3.81531,3.25113 -26.52391,14.83796 -48.43819,24.7151 -13.67736,6.16461 -21.34289,8.90709 -34.6563,12.39888 -23.10127,6.05893 -30.53919,7.3914 -53.90551,9.65695 -24.17509,2.34396 -45.94429,2.33445 -65.5,-0.0286 z M 681.7477,725.77273 c 9.7111,-0.1148 34.4085,-12.79234 45.33752,-23.27243 10.31717,-9.89336 21.35882,-30.96771 22.64442,-43.21964 0.34627,-3.3 1.04757,-8.7 1.55845,-12 2.10348,-13.58721 0.59824,-31.15558 -2.89374,-33.77446 -0.89877,-0.67405 -2.30518,-2.52379 -3.12535,-4.11055 -1.83485,-3.54978 -5.19216,-5.86558 -7.31987,-5.0491 -1.00867,0.38706 -1.80115,2.32097 -2.16065,5.27268 -1.63719,13.44228 -3.03512,19.0162 -6.22926,24.83783 -3.42514,6.24262 -16.06852,20.3236 -18.24867,20.3236 -0.64999,0 -2.16472,0.54912 -3.36606,1.22028 -3.4518,1.92841 -8.97908,3.74823 -11.43426,3.76466 -1.2375,0.008 -2.24951,0.35256 -2.24891,0.76506 6.1e-4,0.4125 -6.18689,0.63694 -13.75,0.49875 -15.23653,-0.2784 -24.36066,-2.03028 -30.38686,-5.83446 -2.10347,-1.32786 -4.08748,-2.41429 -4.40892,-2.41429 -0.32144,0 -1.72038,-1.35 -3.10876,-3 -1.38839,-1.65 -3.09776,-3 -3.7986,-3 -1.72946,0 -10.27061,-9.25005 -11.73701,-12.71116 -0.64986,-1.53386 -2.61125,-4.36384 -4.35864,-6.28884 -1.74739,-1.925 -4.02649,-5.075 -5.06468,-7 -1.03819,-1.925 -3.35012,-5.2685 -5.13762,-7.43 -1.7875,-2.1615 -3.25,-4.30794 -3.25,-4.76987 0,-0.46193 -1.04023,-2.51843 -2.31162,-4.57 -1.27139,-2.05157 -3.77684,-7.10513 -5.56767,-11.23013 -2.53407,-5.83698 -3.18561,-8.59568 -2.93838,-12.44136 0.30257,-4.70654 0.48226,-4.98377 3.78113,-5.8339 1.90491,-0.49091 4.65864,-1.74359 6.1194,-2.78374 1.46076,-1.04015 3.7575,-2.31001 5.10387,-2.82189 9.87916,-3.75605 33.60595,-26.69568 38.71537,-37.43095 4.51427,-9.48479 6.68623,-15.48944 8.56834,-23.68816 4.03136,-17.56108 3.6979,-36.93214 -0.84371,-49.01313 -4.65622,-12.38583 -5.13337,-13.49389 -6.37673,-14.8083 -0.6875,-0.72678 -1.25,-1.66207 -1.25,-2.07841 0,-0.41635 -3.825,-4.96142 -8.5,-10.10016 -4.675,-5.13874 -8.5,-9.71596 -8.5,-10.17158 0,-0.45563 1.28026,-0.82842 2.84501,-0.82842 1.61522,0 3.66203,-0.90279 4.7351,-2.08852 1.70145,-1.88008 2.79169,-2.05473 10.92428,-1.75 7.99081,0.29942 9.82567,0.74274 15.88725,3.83852 10.12494,5.17102 16.4362,12.80498 22.56121,27.28953 2.65906,6.2882 5.76419,15.10891 6.90029,19.60156 1.13609,4.49265 2.27792,8.51196 2.5374,8.9318 0.25948,0.41984 1.19246,5.46894 2.07329,11.22023 4.37525,28.56751 6.22503,34.95688 10.12031,34.95688 2.33919,0 2.81898,-3.75621 3.51261,-27.5 0.57238,-19.59303 1.0633,-25.19355 2.67352,-30.5 6.33935,-20.8911 11.5244,-31.28127 20.70993,-41.5 1.97756,-2.2 4.28623,-5.27842 5.13038,-6.84093 1.41,-2.60988 1.38658,-3.00581 -0.28788,-4.86839 -1.63917,-1.82333 -2.67856,-1.97541 -10.3227,-1.51043 -5.91349,0.35971 -10.17362,1.25271 -14,2.93464 -3.025,1.32968 -6.2875,2.2423 -7.25,2.02803 -0.9625,-0.21426 -1.75,0.0934 -1.75,0.68376 0,1.99689 -4.8304,1.18303 -5.5,-0.92668 -0.69858,-2.20104 -1.59549,-2.50451 -3.06348,-1.03652 -0.61796,0.61796 -2.39306,0.4544 -4.95,-0.45611 -2.19258,-0.78077 -4.66152,-1.45341 -5.48652,-1.49475 -0.825,-0.0413 -3.75,-1.18198 -6.5,-2.53475 -2.75,-1.35277 -5.7247,-2.4637 -6.61045,-2.46873 -0.88575,-0.005 -3.17772,-1.07271 -5.09326,-2.37264 -1.91555,-1.29992 -4.79084,-2.62644 -6.38955,-2.94783 -13.66575,-2.74718 -18.24344,-3.37087 -23.2931,-3.17357 -6.24149,0.24385 -15.92386,3.17941 -21.3023,6.45855 -6.82835,4.16313 -11.10132,2.55065 -35.70433,-13.47365 -5.06668,-3.3 -13.35098,-8.70356 -18.40957,-12.00792 -5.05859,-3.30436 -10.4677,-6.57213 -12.02023,-7.26173 -2.95408,-1.31212 -19.27298,-11.32072 -31.0845,-19.06454 -8.72699,-5.72156 -18.94074,-15.23347 -21.77781,-20.28136 -1.20075,-2.13645 -2.51999,-3.88445 -2.93165,-3.88445 -0.41166,0 -1.05742,-1.0125 -1.43501,-2.25 -0.3776,-1.2375 -1.54883,-4.17272 -2.60273,-6.52271 -2.47581,-5.52055 -2.99832,-17.0784 -1.07267,-23.72729 2.56116,-8.8432 10.40163,-20.5 13.78847,-20.5 0.64293,0 2.24216,-0.81461 3.55383,-1.81025 9.11351,-6.91771 36.94538,-6.56155 52.40003,0.67055 6.8989,3.22839 16.8172,11.98282 20.48483,18.08103 1.375,2.28623 3.95813,6.04721 5.74029,8.35773 1.78217,2.31052 3.24467,4.72697 3.25,5.3699 0.005,0.64293 0.66782,2.44293 1.47218,4 0.80437,1.55707 2.19515,5.53104 3.09064,8.83104 0.89549,3.3 2.08357,7.125 2.6402,8.5 1.4284,3.52854 2.90225,13.25336 3.27917,21.63677 0.40187,8.93838 0.97215,10.72805 3.9215,12.30649 1.99376,1.06703 2.7817,0.98773 5.0675,-0.50998 2.19262,-1.43666 2.58125,-2.26341 2.04636,-4.35337 -1.10164,-4.30435 -0.58311,-16.67817 1.45005,-34.60318 1.86238,-16.41943 2.52026,-19.8273 4.24253,-21.97673 0.44069,-0.55 3.76138,-6.85 7.37931,-14 3.61792,-7.15 7.34238,-13.675 8.27657,-14.5 3.05929,-2.70171 6.46968,-9.07402 5.41877,-10.12493 -0.97817,-0.97817 -9.64917,0.59692 -11.77507,2.13894 -2.08191,1.51011 -9.17109,3.42737 -13.5,3.65106 -2.475,0.12789 -6.77619,0.51818 -9.55819,0.86731 -3.95284,0.49606 -5.3454,0.28872 -6.37245,-0.9488 -0.72284,-0.87097 -2.29415,-1.58358 -3.4918,-1.58358 -1.19766,0 -2.60506,-0.41769 -3.12756,-0.92819 -0.5225,-0.51051 -5.45,-2.27367 -10.95,-3.91814 -5.5,-1.64448 -13.15,-4.19852 -17,-5.67565 -3.85,-1.47713 -9.475,-3.1113 -12.5,-3.63149 -6.8584,-1.1794 -24.00633,-1.18559 -30,-0.0108 -15.52098,3.04211 -32.61262,15.05546 -42.91537,30.1643 -11.82882,17.34679 -14.92896,27.94929 -15.78943,54 -0.47364,14.33918 -0.26953,17.79047 1.55853,26.354 1.15695,5.41969 2.78816,11.22633 3.62491,12.90363 0.83675,1.67731 1.52136,3.50057 1.52136,4.05169 0,1.72855 9.31075,14.79405 13.60181,19.08703 2.256,2.25701 7.33397,6.12865 11.28439,8.60365 3.95041,2.475 10.20459,6.45336 13.89818,8.84079 3.69359,2.38743 9.19062,5.67863 12.21562,7.31376 3.025,1.63514 7.3,4.07269 9.5,5.41679 8.81743,5.38705 32.51217,16.40486 36.6236,17.02961 8.69373,1.32105 9.05259,3.64957 2.50619,16.26147 -1.89494,3.65067 -4.59066,8.88758 -5.9905,11.63758 -4.44483,8.73193 -16.6444,47.30045 -18.66223,59 -3.0245,17.53625 -4.50159,23.5128 -5.80461,23.48635 -2.38655,-0.0485 -5.17245,-1.42655 -5.17245,-2.5586 0,-0.73643 -1.04938,-2.88532 -2.33196,-4.7753 -1.28259,-1.88999 -3.53226,-6.97248 -4.99928,-11.29441 -2.94711,-8.68237 -3.51581,-10.2616 -7.87147,-21.85807 -3.31066,-8.81431 -8.60664,-25.98302 -9.74048,-31.57706 -0.39876,-1.96739 -1.10767,-4.19622 -1.57537,-4.95297 -1.69364,-2.74037 -3.82132,-15.64928 -3.86837,-23.46997 -0.0346,-5.75676 0.4576,-9.03503 1.75544,-11.69121 1.02777,-2.10344 1.52825,-4.55872 1.16349,-5.70797 -0.8878,-2.7972 -10.30781,-10.10082 -13.02777,-10.10082 -1.22898,0 -3.3077,-0.83924 -4.61937,-1.86498 -1.31167,-1.02573 -4.63486,-3.05871 -7.38486,-4.51773 -2.75,-1.45901 -7.7,-4.21503 -11,-6.12448 -5.70284,-3.29979 -16.27965,-8.59347 -25,-12.51248 -2.2,-0.9887 -7.15,-2.76098 -11,-3.93841 -3.85,-1.17743 -8.35,-2.60582 -10,-3.1742 -5.60237,-1.92987 -23.90374,-2.68577 -32.73338,-1.35197 -21.11894,3.19021 -40.13142,13.50451 -54.49299,29.56253 -11.95427,13.36637 -19.10288,26.07524 -21.33056,37.92172 -1.67842,8.92558 -1.47106,26.85713 0.42209,36.5 4.20796,21.43355 17.45786,42.43033 33.83141,53.61178 7.60154,5.19107 25.25981,14.41704 30.55343,15.96334 4.11245,1.20128 4.24915,1.37388 4.22378,5.33317 -0.0302,4.71871 -2.02163,9.2816 -6.97378,15.97908 -20.41249,27.60667 -39.21277,44.87598 -51.32629,47.14661 -12.26651,2.29931 -17.28397,7.05961 -10.45046,9.91483 2.72573,1.13888 13.57129,1.45412 56.88579,1.65346 29.43489,0.13545 54.0519,-0.0837 54.70447,-0.48701 3.61893,-2.23662 -1.50365,-7.70113 -10.40492,-11.09944 -9.36329,-3.5747 -14.97057,-8.56355 -20.8876,-18.58387 -5.26006,-8.90776 -6.96173,-15.40831 -6.00297,-22.93195 0.72082,-5.65652 4.09928,-14.55571 7.04828,-18.56586 l 2.25459,-3.06587 22.11492,-0.0693 c 21.2317,-0.0665 25.35575,-0.39588 49.23654,-3.93251 5.8698,-0.86928 11.14561,-1.28804 11.72402,-0.93056 1.66198,1.02716 7.13396,20.02229 9.09274,31.56405 3.3314,19.62971 4.00863,26.47681 2.93924,29.71711 -0.64368,1.95036 -1.7623,3.29198 -2.7559,3.3053 -0.91985,0.0124 -4.37245,1.35229 -7.67245,2.97764 -3.3,1.62535 -6.421,2.96527 -6.93555,2.97759 -1.18175,0.0283 -5.56445,4.10114 -5.56445,5.17104 0,0.44001 1.38527,1.51636 3.07839,2.39191 2.70582,1.39923 8.33705,1.55362 46.52932,1.27568 l 43.45094,-0.31622 1.07538,4 c 4.18184,15.55488 25.79295,44.9555 41.71023,56.74426 6.69748,4.96033 20.07852,11.63571 26.65574,13.29771 2.75,0.69491 8.15,2.18195 12,3.30454 5.68452,1.65751 8.97322,1.96025 17.5,1.61098 5.775,-0.23656 11.84436,-0.446 13.48747,-0.46542 z M 591.57279,555.995 c -2.15883,-1.37271 -3.21531,-5.97438 -4.34344,-18.91855 -0.96693,-11.09464 -0.8671,-19.54478 0.482,-40.79579 0.49946,-7.86755 3.81132,-24.07542 5.77251,-28.25 2.6057,-5.54647 4.68336,-5.49932 12.03638,0.27311 6.28643,4.93511 10.77161,10.49579 14.09667,17.47689 1.17883,2.475 2.5024,4.76489 2.94127,5.08865 1.07259,0.79126 3.56214,9.91811 4.88571,17.91135 1.6397,9.90243 1.07982,18.61998 -1.49592,23.29198 -1.20326,2.18252 -2.63774,4.82845 -3.18774,5.87985 -0.55,1.05139 -1.99637,2.16258 -3.21417,2.46931 -1.21779,0.30673 -2.45975,1.33147 -2.75992,2.27721 -0.74606,2.35065 -18.87109,14.08535 -21.72639,14.06634 -1.26473,-0.008 -2.83387,-0.35508 -3.48696,-0.77035 z m -210.4817,-12.23749 c -12.07988,-2.03848 -23.28112,-7.25603 -30.68147,-14.29146 -4.44771,-4.22839 -10.75338,-13.54109 -13.73736,-20.28838 -5.37181,-12.14663 -6.89838,-33.26549 -3.39481,-46.96436 5.2267,-20.4362 22.51565,-38.88202 43.20098,-46.09172 4.15654,-1.44873 8.26443,-1.84093 19.2818,-1.84093 15.13172,0 22.92758,1.62823 29,6.05687 1.65,1.20336 4.308,2.60634 5.90668,3.11775 2.56119,0.81931 3.16939,1.84013 5.11703,8.5886 1.21569,4.21232 1.89527,7.78881 1.51017,7.94777 -0.3851,0.15896 -2.1993,4.56401 -4.03155,9.78901 -9.67913,27.60175 -15.65254,45.24034 -20.65189,60.98194 -6.96846,21.94175 -9.13867,27.81183 -11.56003,31.26806 -1.79265,2.5588 -2.39116,2.74182 -8.6085,2.63238 -3.67505,-0.0647 -8.78302,-0.47218 -11.35105,-0.90553 z m 87.66914,-1.6336 c -7.03425,-0.83726 -10.32222,-2.42031 -13.77259,-6.63103 -2.72912,-3.33053 -4.61239,-4.56093 -8.50996,-5.55985 -6.05254,-1.55122 -11.73875,-0.6739 -13.69025,2.11226 -0.78313,1.11808 -3.52112,3.76593 -6.08442,5.88412 -3.67784,3.03919 -5.49777,3.85125 -8.63112,3.85125 -3.95614,0 -3.96803,-0.0118 -3.27254,-3.25 0.38392,-1.7875 1.96126,-7.3 3.50521,-12.25 4.10004,-13.14502 10.93694,-35.30661 12.49433,-40.5 0.74221,-2.475 3.21392,-11.7 5.4927,-20.5 2.27878,-8.8 4.50874,-16.38229 4.95546,-16.84952 2.06143,-2.15609 7.00965,9.68878 19.98925,47.84952 3.18021,9.35 7.63659,22.28268 9.90307,28.73928 2.26647,6.4566 4.12086,13.0941 4.12086,14.75 0,3.16164 0.0706,3.13606 -6.5,2.35397 z m 451.10849,259.96888 c 7.7106,-3.9042 11.8597,-7.58212 14.3448,-12.7157 1.9406,-4.0086 2.044,-5.11538 1.1467,-12.27112 -1.2042,-9.60418 -1.5864,-10.67341 -5.813,-16.26419 -3.1919,-4.222 -15.3634,-15.0231 -17.0103,-15.09505 -0.4272,-0.0187 -2.5767,-0.90339 -4.7767,-1.96607 -4.6335,-2.23816 -19.1645,-2.77603 -22.8157,-0.84453 -4.201,2.22229 -10.5942,8.02671 -12.6169,11.45483 -1.1219,1.90149 -2.5002,6.33906 -3.0628,9.86125 -0.8933,5.59152 -0.764,7.09632 1.0187,11.86104 4.4842,11.98516 15.9238,24.05764 26.7393,28.21873 5.7344,2.20621 16.0665,1.19354 22.8459,-2.23919 z m -17.034,-12.35931 c -5.8982,-1.76155 -18.5745,-16.13123 -18.5745,-21.05581 0,-13.11992 15.323,-14.19306 29.1091,-2.03865 5.2733,4.64912 7.7214,10.82716 6.0414,15.24596 -1.2111,3.18524 -6.6671,7.89568 -9.1454,7.89568 -1.0128,0 -2.4408,0.18597 -3.1733,0.41327 -0.7325,0.2273 -2.6483,0.0201 -4.2573,-0.46045 z m -64.5745,-5.8938 c 0,-1.06754 0.5101,-2.25627 1.1336,-2.64161 0.769,-0.47524 0.9492,-3.14809 0.5602,-8.30901 -0.4665,-6.18752 -0.9583,-7.86462 -2.6337,-8.98037 -1.133,-0.75459 -2.0601,-1.99209 -2.0601,-2.75 0,-2.46759 -4.4319,-1.45724 -8.2115,1.87197 -5.0461,4.44492 -5.6223,7.53982 -2.4087,12.93895 4.2804,7.1917 13.6202,12.58843 13.6202,7.87007 z M 145.14624,660.33961 c 4.99803,-2.58458 8.11399,-7.78499 8.11399,-13.54189 0,-5.96649 -1.70615,-9.75057 -6.04081,-13.39794 -2.53507,-2.13312 -4.13673,-2.61912 -8.63162,-2.61912 -7.1758,0 -10.86351,2.20728 -14.01053,8.38602 -4.16591,8.17921 -1.10356,15.943 7.95145,20.15878 6.03588,2.81016 8.72625,3.0264 12.61752,1.01415 z m 833.89728,-1.95996 c 6.142,-3.12657 8.8155,-6.20093 9.5416,-10.97271 0.6418,-4.21706 -1.2975,-8.93776 -5.6541,-13.76351 -3.5722,-3.95682 -6.3333,-5.09558 -10.6054,-4.37382 -7.0229,1.18652 -15.7014,11.84798 -14.1061,17.32942 3.9152,13.45335 10.3673,17.10347 20.824,11.78062 z m 50.01638,-93.85345 c 1.0645,-2.23186 1.0876,-4.61966 0.1222,-12.58535 -1.1137,-9.18918 -1.0521,-10.23354 0.9433,-15.99952 3.3287,-9.61842 2.7787,-11.77501 -3.356,-13.15858 -2.4789,-0.55909 -6.2357,-0.38489 -10.8962,0.50525 -3.9122,0.74719 -7.788,1.31782 -8.613,1.26806 -0.825,-0.0498 -2.9625,-0.0196 -4.75,0.0671 -3.08508,0.14954 -3.24998,0.35572 -3.24998,4.06373 0,3.32972 0.7388,4.67271 5.00608,9.1001 6.51,6.75425 7.2642,9.5664 3.3957,12.66179 -1.596,1.27709 -3.4739,2.32421 -4.1732,2.32694 -1.8653,0.007 -3.58088,4.46495 -2.8458,7.394 0.6768,2.69672 1.7817,3.14916 14.6172,5.98565 9.3123,2.0579 12.2041,1.71651 13.7997,-1.62914 z M 159.86053,554.01535 c 2.13533,-1.42581 3.3997,-5.15912 3.3997,-10.03835 0,-4.58362 3.64145,-24.18711 5.97941,-32.18974 1.22926,-4.20766 1.31339,-11.99647 0.1494,-13.83243 -1.13899,-1.79651 -8.00349,-2.58539 -11.33091,-1.30216 -3.82089,1.47353 -5.26314,4.9601 -7.66888,18.53919 -3.10591,17.53118 -4.51051,18.98384 -17.82666,18.43661 -7.05153,-0.28978 -8.71349,-0.6815 -9.96127,-2.34781 -2.02487,-2.70407 -1.206,-8.18889 2.66643,-17.85982 1.70345,-4.25418 2.89046,-8.50107 2.63778,-9.43753 -0.25268,-0.93646 -0.74226,-2.9698 -1.08796,-4.51855 -0.77271,-3.46184 -6.28527,-6.12241 -10.6837,-5.15635 -3.93699,0.86471 -6.59994,6.29262 -8.49285,17.31104 -2.37575,13.82893 -3.17911,16.13403 -5.99626,17.20511 -8.005587,3.04372 -15.384537,-1.28297 -15.384537,-9.02081 0,-2.27191 1.60936,-8.94096 3.57636,-14.8201 3.74992,-11.20809 3.90234,-14.91156 0.75678,-18.38737 -1.10584,-1.22194 -3.05977,-1.81562 -5.97558,-1.81562 -3.93122,0 -4.5453,0.34731 -6.63044,3.75 -1.26388,2.0625 -2.82054,4.95604 -3.45925,6.43008 -1.99874,4.61283 -8.45382,37.9429 -7.8299,40.42881 1.11624,4.44745 5.19816,5.83202 30.56203,10.36654 5.774997,1.03245 16.349997,3.03613 23.499997,4.45263 18.17629,3.60095 36.70656,5.40497 39.10031,3.80663 z m 806.22819,-44.27643 c 1.2807,-0.54279 7.1307,-1.25948 13,-1.59262 11.7569,-0.66733 16.7413,-2.27278 23.37968,-7.53057 2.2271,-1.76388 4.6663,-4.68391 5.4205,-6.48894 1.5577,-3.72793 1.807,-10.52355 0.481,-13.1097 -0.4897,-0.95504 -1.8936,-5.11143 -3.1198,-9.23643 -1.2262,-4.125 -3.0769,-8.24816 -4.1125,-9.16258 -2.97918,-2.63039 -9.15548,-3.26207 -12.91028,-1.32038 -3.0276,1.56562 -3.1808,1.90683 -2.6372,5.87292 0.3174,2.31591 1.7187,6.66308 3.1139,9.66039 1.3952,2.99731 2.5411,6.13702 2.5464,6.97714 0.028,4.4391 -6.8842,8.16994 -11.0283,5.95212 -2.2028,-1.17889 -3.9484,-6.76701 -3.9563,-12.66451 -0.01,-6.16664 -1.4687,-9.00056 -5.7692,-11.19452 -6.6619,-3.39865 -15.1629,-4.64196 -23.216,-3.39545 -3.9071,0.60477 -8.2743,1.86642 -9.7047,2.80366 l -2.6007,1.70407 0.6787,16.13357 c 0.6829,16.23203 2.2358,24.25124 5.1673,26.68417 0.7982,0.66249 2.9002,1.50085 4.6711,1.86303 3.7394,0.76479 17.1918,-0.51235 20.5964,-1.95537 z m -15.4056,-16.04347 c -1.4337,-1.5842 -1.8914,-3.63484 -1.905,-8.53475 -0.021,-7.44081 0.763,-8.3415 7.2776,-8.36473 5.6163,-0.02 9.2045,3.28921 9.2045,8.4889 0,4.17195 -2.2128,8.97973 -4.5448,9.87461 -3.4015,1.30528 -8.1537,0.61178 -10.0323,-1.46403 z m -779.24935,-9.90423 c 0.92045,-1.1238 2.42248,-4.17342 3.33785,-6.77692 0.91537,-2.6035 2.07586,-5.40864 2.57885,-6.23364 3.17069,-5.2005 5.67878,-16.79984 4.57956,-21.17947 -0.36277,-1.44541 -2.45689,-4.90177 -4.65359,-7.6808 -5.39362,-6.82345 -9.13243,-7.9496 -20.86086,-6.2834 -4.76044,0.67629 -9.10535,1.81178 -9.65535,2.5233 -0.55,0.71153 -2.0125,1.83302 -3.25,2.49221 -1.2375,0.65919 -2.25,2.00153 -2.25,2.98298 0,0.98145 -2.19449,4.6199 -4.87664,8.08545 -7.82068,10.10491 -14.12337,12.80879 -14.12337,6.059 0,-6.38768 5.11522,-14.40968 11.2227,-17.6001 2.36822,-1.23712 2.64067,-1.8439 2.09275,-4.66073 -0.77077,-3.96244 -1.44221,-4.43066 -7.56023,-5.27211 -5.73855,-0.78925 -9.27391,1.15385 -14.48798,7.96284 -5.73614,7.49078 -7.50402,15.57715 -5.21083,23.83469 1.89966,6.8405 14.59124,16.73614 21.46482,16.73614 6.90236,0 17.87678,-8.99288 20.39942,-16.7161 2.03764,-6.23837 5.85014,-10.24881 10.42944,-10.97094 4.24221,-0.66896 5.60807,0.43908 5.63461,4.57102 0.0315,4.89606 -2.42632,10.21228 -7.19463,15.56221 -4.29553,4.81947 -4.87408,5.98372 -4.60166,9.26018 0.23279,2.79973 0.94394,4.08118 2.8116,5.06631 3.6018,1.89982 12.03275,0.85165 14.17354,-1.76212 z m 776.37195,-29.46511 c 1.35,-1.35 2.4545,-2.97673 2.4545,-3.61496 0,-0.63822 -1.1599,-5.41812 -2.5776,-10.62199 -1.4177,-5.20387 -2.3505,-10.05349 -2.0729,-10.77694 1.246,-3.24682 19.914,3.29582 27.1505,9.51552 4.1124,3.53451 8.9775,5.26747 14.6432,5.21586 11.4523,-0.10433 14.52618,-4.40049 11.5582,-16.15406 -0.9179,-3.63489 -2.3422,-10.43388 -3.1652,-15.10888 -2.7314,-15.51636 -3.0112,-16 -9.2575,-16 -4.1699,0 -10.6823,2.22601 -11.7991,4.03306 -0.2685,0.43443 0.1437,2.06721 0.9161,3.62841 2.3909,4.83289 3.688,10.02679 3.4365,13.76066 -0.2768,4.10953 0.073,3.9828 -5.9507,2.15445 -5.3349,-1.61921 -10.9443,-4.34096 -19.2844,-9.35696 -5.7676,-3.4688 -6.1536,-3.55217 -16.8307,-3.63492 -10.3186,-0.08 -11.0345,0.0466 -12.8422,2.27 -2.2873,2.8135 -1.7049,9.12024 1.2141,13.1453 2.1972,3.02982 5.2294,14.48602 4.5359,17.13781 -0.5026,1.92189 0.5574,7.11214 2.449,11.99114 2.0351,5.24935 11.1597,6.67908 15.4223,2.4165 z m -761.04549,-32.2876 c 9.4698,-4.83553 14.12037,-11.33237 15.1477,-21.16135 0.55172,-5.27853 0.28268,-6.62219 -2.45525,-12.2623 -3.76,-7.74559 -4.81697,-9.07447 -8.89279,-11.18052 -3.99173,-2.06261 -6.23658,-2.08659 -9.07715,-0.097 -3.65095,2.55723 -3.0715,9.26637 1.4302,16.5597 3.15089,5.10485 3.5006,6.2517 2.54554,8.34784 -1.82846,4.01303 -5.32527,5.60321 -12.44159,5.65783 -7.67183,0.0589 -14.33309,-2.84691 -21.34687,-9.31199 -3.66524,-3.37848 -4.40979,-4.68107 -4.40979,-7.71491 0,-4.7734 1.84241,-7.23453 9.11083,-12.17041 11.57202,-7.85841 9.73968,-14.92474 -3.87008,-14.92474 -3.06502,0 -6.26948,0.96402 -10.24122,3.08094 -9.78058,5.21299 -12.99953,10.24771 -12.99953,20.3324 0,8.67162 5.76586,21.16968 11.6947,25.3494 4.38303,3.08995 18.23344,9.22465 24.3053,10.76545 6.46505,1.64057 17.02074,1.01688 21.5,-1.27034 z m 755.05089,-27.274 c 6.9277,-2.19985 16.7254,-5.60474 21.7725,-7.56643 5.0471,-1.9617 12.5516,-4.87828 16.6766,-6.4813 9.9641,-3.87216 11.9562,-6.69821 8.3505,-11.84612 -1.5287,-2.18253 -2.1329,-2.31392 -8.25,-1.79402 -3.6886,0.3135 -10.1297,1.90901 -14.6005,3.61665 -4.4,1.68061 -16.775,5.53835 -27.5,8.57275 -20.441,5.78335 -23,7.13972 -23,12.19115 0,3.35618 1.6981,6.25297 4.3154,7.36181 3.1654,1.34106 8.047,0.45094 22.2355,-4.05449 z m 66.92598,-21.14438 c 2.4968,-1.96396 2.7028,-2.61777 2.2638,-7.18643 -0.3474,-3.61478 -1.1118,-5.5351 -2.7226,-6.83947 -4.1451,-3.35651 -12.14148,-1.64704 -17.01808,3.63814 -2.3386,2.5346 -2.387,2.79207 -0.75,3.98912 0.9625,0.70381 1.75,1.65542 1.75,2.11469 0,0.45927 1.2092,2.09717 2.6871,3.63976 3.4496,3.60065 9.66238,3.89087 13.78978,0.64419 z m -81.21368,-6.95869 c 4.5302,-2.28464 9.1368,-4.62235 10.2368,-5.19491 1.1,-0.57257 3.125,-1.58259 4.5,-2.2445 24.6765,-11.87901 30.2501,-14.96889 31.1177,-17.25098 1.6973,-4.46426 -1.5349,-10.19039 -5.7522,-10.19039 -1.2785,0 -6.9463,2.05837 -12.595,4.57415 -14.2326,6.33873 -36.263,14.42585 -39.2981,14.42585 -4.7836,0 -5.8193,-9.34907 -1.6591,-14.97655 3.3203,-4.49136 12.0445,-9.76524 23.9977,-14.50689 6.429,-2.55027 13.489,-5.86576 15.689,-7.36775 3.4024,-2.3229 4.039,-3.32236 4.2609,-6.68985 0.3384,-5.13482 -0.6827,-6.53943 -5.0034,-6.88226 -8.5962,-0.68206 -40.0376,13.98827 -55.0075,25.66604 -3.4868,2.72001 -3.75,3.29428 -3.75,8.18236 0,7.21812 2.0579,13.42164 5.8174,17.53685 1.7395,1.90407 3.8938,5.66312 4.7874,8.35344 0.8936,2.69033 2.5855,6.43551 3.7599,8.32262 2.0044,3.22082 2.3966,3.39942 6.3985,2.91389 2.3447,-0.28448 7.9697,-2.38649 12.5,-4.67112 z m -712.3913,3.01404 c 3.49654,-1.21891 5.12811,-3.50142 5.12811,-7.17409 0,-4.76279 -6.15841,-7.90567 -15.56848,-7.94522 -7.50934,-0.0316 -10.14994,0.76194 -10.95274,3.29134 -0.91874,2.89472 1.2948,8.60989 4.22847,10.91751 2.93379,2.30772 11.8064,2.77835 17.16464,0.91046 z m 654.6203,-41.15098 c 1.6457,-1.18901 6.3707,-4.39724 10.5,-7.12942 4.1293,-2.73217 9.4942,-7.17392 11.922,-9.87055 2.4278,-2.69662 10.3028,-8.77271 17.5,-13.50242 11.5708,-7.60387 17.2239,-11.77256 25.3205,-18.67179 3.2874,-2.80127 3.073,-8.43918 -0.4847,-12.74293 -1.5125,-1.8297 -3.079,-3.4739 -3.4811,-3.65378 -1.0747,-0.48069 -6.3503,-8.48849 -8.302,-12.60156 -0.929,-1.95757 -3.2297,-4.91196 -5.1127,-6.5653 -2.8949,-2.5417 -4.2518,-3.00609 -8.7836,-3.00609 -16.6257,0 -39.1456,15.11151 -46.0184,30.87968 -3.7102,8.51203 -3.1712,12.03837 3.3606,21.98747 2.798,4.26183 5.0872,8.68534 5.0872,9.83003 0,2.82863 -2.5513,5.71141 -8.4663,9.56624 -8.2813,5.39693 -9.5754,10.78578 -3.9427,16.41848 2.8938,2.89383 5.963,2.62972 10.9012,-0.93806 z m 13.8149,-35.52693 c -2.3343,-0.36303 -3.6434,-3.32741 -4.8137,-10.89967 -0.8528,-5.51814 1.8427,-11.60708 7.3241,-16.54451 5.4748,-4.93142 10.6014,-7.07211 16.613,-6.93694 4.2705,0.096 5.4419,0.61017 8.75,3.84048 5.1513,5.03006 5.3505,9.86158 0.5695,13.81249 -4.9941,4.12704 -18.3467,12.37191 -21.1935,13.08641 -1.3984,0.351 -2.3499,0.95011 -2.1143,1.33135 0.6954,1.12519 -2.7599,2.6798 -5.1351,2.31039 z m -639.80709,17.02695 c 6.78734,-3.54211 18.45664,-16.73959 18.5318,-20.95868 0.0175,-0.98185 0.68557,-2.64922 1.48462,-3.70527 3.41967,-4.51957 -1.26709,-17.50402 -9.30388,-25.77594 -6.83158,-7.03145 -12.60111,-9.64884 -22.57236,-10.24012 -8.33385,-0.49418 -6.57402,-1.37181 -21.48139,10.71277 -5.56132,4.50826 -13.67875,8.72338 -16.79937,8.72338 -4.11848,0 -7.56405,-4.07422 -8.09197,-9.56836 -0.42194,-4.39127 -0.16603,-5.26033 2.26479,-7.69115 1.50727,-1.50727 3.48912,-2.74049 4.40412,-2.74049 0.915,0 2.09114,-0.4064 2.61364,-0.90311 0.5225,-0.49672 3.84956,-1.63471 7.39346,-2.52888 7.78671,-1.96467 12.64556,-5.42034 13.57569,-9.65518 0.79618,-3.62499 -0.002,-4.65892 -5.23703,-6.78358 -5.74907,-2.33331 -14.99109,-1.8688 -21.39621,1.07538 -9.62946,4.42629 -14.84024,10.2095 -18.22178,20.22351 -2.17595,6.44384 -2.10223,11.39742 0.26225,17.62022 4.43752,11.67862 11.03889,16.35986 23.07362,16.36223 10.85124,0.002 17.8698,-2.21426 23.79999,-7.51584 5.559,-4.96974 14.70857,-9.90579 18.29992,-9.87251 1.32005,0.0122 3.52509,0.88744 4.90009,1.94491 2.29683,1.76642 2.5,2.57058 2.5,9.8949 0,7.87546 -0.0454,8.01761 -3.74041,11.71216 -2.76749,2.76714 -4.90406,3.91655 -8.214,4.41887 -2.46047,0.37341 -4.83866,0.31385 -5.28485,-0.13234 -0.96828,-0.96828 -11.03324,0.47634 -12.18867,1.74943 -0.44418,0.4894 -1.08039,2.35001 -1.4138,4.13468 -0.50051,2.67908 -0.0699,3.85561 2.46936,6.74774 1.69157,1.92658 4.49236,3.93969 6.22397,4.47357 5.23002,1.61246 17.60185,0.65041 22.1484,-1.7223 z m 50.68513,-58.89843 c 2.37318,-3.11867 6.91611,-8.40971 10.09539,-11.75787 7.19824,-7.58058 8.92118,-12.26637 6.21474,-16.90194 -1.9173,-3.28393 -11.90718,-13.63875 -16.59333,-17.19949 -1.45771,-1.10763 -7.26214,-6.4121 -12.89873,-11.78771 -5.63659,-5.3756 -11.59785,-10.47169 -13.24725,-11.32463 -3.7008,-1.91375 -9.30941,-1.07667 -10.7438,1.6035 -2.54937,4.76355 -1.4699,6.40458 15.03175,22.85144 16.87878,16.82273 18.56866,19.36888 16.89006,25.44827 -1.46607,5.30968 -3.14599,6.923 -7.20881,6.923 -4.51356,0 -5.90229,-1.05985 -21.63534,-16.51166 -6.8256,-6.70358 -13.5756,-12.97287 -15,-13.93175 -5.07984,-3.41965 -14.08981,-1.28386 -14.08981,3.33995 0,3.55884 3.76307,9.46839 8.50199,13.35158 2.55384,2.09268 8.99814,8.05652 14.32068,13.25298 5.32253,5.19646 11.70233,10.83204 14.17733,12.52352 2.475,1.69148 5.50271,3.97716 6.72825,5.07928 3.01661,2.71283 9.05671,3.69658 12.45688,2.02885 1.47682,-0.72436 4.62682,-3.86866 7,-6.98732 z m 547.35326,-0.15843 c 4.9289,-4.29715 12.0149,-11.15965 15.7466,-15.25 3.7318,-4.09035 8.6695,-8.92872 10.9728,-10.75192 l 4.1878,-3.31493 2.5272,2.89898 c 4.425,5.07595 7.5181,6.44506 11.8968,5.266 2.1098,-0.56812 5.0566,-2.16414 6.5484,-3.54671 4.0526,-3.7558 3.2283,-7.05725 -2.918,-11.68759 -2.75,-2.07172 -5.7534,-5.16636 -6.6743,-6.87698 -0.9208,-1.71062 -3.1708,-4.45435 -5,-6.09718 -5.104,-4.58411 -8.7728,-3.56011 -16.3257,4.55675 -6.7049,7.20551 -22.3021,23.73531 -28.8892,30.61658 -5.2905,5.52683 -7.6108,9.86437 -7.6108,14.22783 0,3.92261 2.3998,7.77217 4.8451,7.77217 0.9524,0 5.7644,-3.51585 10.6933,-7.813 z M 346.76023,236.64952 c 2.74889,-1.18763 5.86915,-3.18835 6.64787,-4.26262 1.17404,-1.61965 -1.31518,-6.6405 -4.00629,-8.08082 -4.24996,-2.27464 -9.58613,-7.75689 -11.08935,-11.3929 -1.31562,-3.18227 -1.25909,-3.4698 1.02779,-5.22776 1.33099,-1.02316 3.08852,-1.87029 3.90563,-1.88252 3.38462,-0.0507 12.15296,-5.51045 14.21939,-8.854 2.26164,-3.65941 2.71305,-10.61062 1.34443,-20.70247 -0.84615,-6.23924 -5.58984,-16.21551 -9.46377,-19.90286 -1.69713,-1.6154 -3.0857,-3.65424 -3.0857,-4.53076 0,-0.87652 -1.2375,-2.13172 -2.75,-2.78934 -1.5125,-0.65761 -5.59135,-3.23127 -9.06412,-5.71923 -5.38562,-3.85839 -7.01942,-4.52358 -11.11045,-4.52358 -3.46704,0 -5.81734,0.69287 -8.48029,2.5 -2.02618,1.375 -4.11397,2.5 -4.63955,2.5 -0.52557,0 -0.95559,0.44085 -0.95559,0.97968 0,0.53882 -1.7445,1.86965 -3.87667,2.9574 -2.13216,1.08775 -4.14304,2.67189 -4.46861,3.52032 -0.32557,0.84843 -1.20884,1.5426 -1.96282,1.5426 -0.75398,0 -1.88345,1.125 -2.50995,2.5 -0.78201,1.71633 -1.9393,2.5 -3.6919,2.5 -1.40405,0 -2.80527,0.65787 -3.11382,1.46193 -0.30854,0.80407 -1.41942,1.73439 -2.46861,2.06739 -1.04919,0.333 -1.90574,1.13763 -1.90343,1.78807 0.007,1.98655 4.55304,10.28299 7.86009,14.34459 18.11605,22.24953 23.8843,30.03071 28.05281,37.84231 1.75645,3.29152 3.99586,6.88708 4.97646,7.99014 0.98061,1.10306 2.81901,3.7361 4.08534,5.85119 1.26633,2.11509 4.11518,5.15877 6.33078,6.76374 4.01517,2.90858 5.03939,2.98491 10.19033,0.7595 z m -18,-43.78863 c -5.76484,-2.63458 -13.44582,-11.91963 -17.10489,-20.67704 -2.89778,-6.93536 2.0572,-13.98353 10.63996,-15.13472 3.45732,-0.46372 4.4987,-0.072 8.4786,3.18922 8.9738,7.35335 14.80384,20.02019 12.4697,27.09271 -1.96809,5.96337 -8.2699,8.36943 -14.48337,5.52983 z m 489.99999,32.72521 c 4.8778,-3.1687 10.074,-8.58572 19.1211,-19.93377 6.9666,-8.73831 18.0799,-24.26358 22.0471,-30.79957 7.5584,-12.45285 7.4507,-12.17613 6.2241,-15.98853 -1.5825,-4.91878 -2.4272,-5.77374 -6.4499,-6.5284 -4.1818,-0.78452 -3.4035,-1.50465 -15.4893,14.3306 -10.7441,14.07733 -15.9466,21.509 -17.5849,25.11976 -3.5469,7.81742 -18.8192,20.04258 -23.1148,18.50295 -0.9644,-0.34564 -3.4409,-2.65719 -5.5034,-5.13677 -5.2321,-6.29012 -5.1137,-10.2166 0.6454,-21.40032 3.7747,-7.3302 14.796,-25.41484 17.3513,-28.47139 2.4214,-2.89633 7.3072,-10.63946 9.6889,-15.35516 3.4323,-6.79577 2.9391,-11.9016 -1.3971,-14.46301 -3.7498,-2.21508 -4.5757,-2.13657 -8.4272,0.80112 -3.242,2.47276 -7.3443,8.05504 -13.6076,18.51694 -1.811,3.02494 -6.0402,9.41155 -9.3982,14.19246 -11.1964,15.94073 -18.0233,28.2478 -19.6189,35.36769 -0.8628,3.84988 -0.6421,5.03719 1.9774,10.63679 1.6217,3.46674 4.5432,8.07241 6.4923,10.23482 1.949,2.16241 3.5437,4.29427 3.5437,4.73746 0,1.40407 8.298,6.1259 13.7327,7.81438 6.8548,2.12964 14.4192,1.29616 19.7673,-2.17805 z M 383.74653,184.23582 c 6.01555,-3.52535 7.86511,-6.6451 7.23801,-12.20873 -0.70113,-6.22039 -3.4858,-9.6671 -8.12771,-10.06002 -3.19697,-0.27061 -4.26117,0.24286 -7.76474,3.74643 -3.9137,3.91371 -4.03583,4.23133 -3.38898,8.81359 0.99193,7.0267 1.35781,7.84173 4.07634,9.08037 1.36443,0.62168 2.48078,1.58997 2.48078,2.15176 0,1.48638 0.66612,1.30142 5.4863,-1.5234 z m 287.13522,-22.98987 c 9.8277,-6.36136 14.40384,-13.89053 19.28333,-31.72707 4.64915,-16.99452 5.50545,-21.74221 5.53349,-30.680076 0.0323,-10.295539 -2.65604,-17.128401 -9.567,-24.316167 -5.22876,-5.43818 -10.14333,-7.063059 -18.54428,-6.131189 -5.42283,0.601524 -6.21082,1.036327 -11.35903,6.267793 -9.98872,10.150243 -13.85427,19.59379 -13.58553,33.189529 0.27022,13.67112 3.4622,17.50668 17.8166,21.40888 3.13451,0.85211 5.96694,1.98265 6.2943,2.51233 0.32735,0.52967 0.85162,3.12819 1.16503,5.77449 0.49971,4.21927 0.23717,5.20682 -2.13318,8.02382 -2.19096,2.60381 -3.44077,3.21237 -6.59723,3.21237 -3.49342,0 -4.84783,-0.87479 -13.16026,-8.5 -5.09633,-4.675 -9.81738,-8.5 -10.49123,-8.5 -0.67384,0 -1.90179,1.30844 -2.72877,2.90764 -1.36358,2.63687 -1.32903,3.415 0.37097,8.35615 3.77735,10.97904 8.54082,16.42326 17.63375,20.15378 7.64635,3.13703 13.01306,2.61497 20.06904,-1.95228 z m -7.39826,-46.13648 c -2.1248,-0.85426 -5.22326,-8.0046 -5.22326,-12.05378 0,-4.230946 2.85513,-10.339039 6.78949,-14.52502 4.8001,-5.107091 13.09538,-3.041202 14.78268,3.681537 0.94488,3.764691 -1.54615,16.551463 -3.94701,20.260543 -1.89872,2.93333 -2.60464,3.27606 -6.62516,3.21658 -2.475,-0.0366 -5.07453,-0.29755 -5.77674,-0.57986 z m -218.47326,43.08041 c 2.87606,-1.86027 2.837,-4.33305 -0.20991,-13.29134 -5.2639,-15.47653 -7.83424,-37.11788 -4.40848,-37.11788 0.48489,0 1.89114,1.20371 3.125,2.67491 1.23387,1.47119 4.31912,5.00775 6.85613,7.85902 2.53701,2.85126 8.68469,10.57646 13.66151,17.16712 9.9349,13.15647 12.42473,14.94797 19.18698,13.8055 4.32803,-0.73122 9.03877,-5.41895 9.03877,-8.99463 0,-0.98962 -1.53141,-7.69714 -3.40313,-14.90561 -1.87173,-7.20847 -5.50097,-23.4563 -8.06499,-36.1063 -3.13099,-15.447292 -5.54355,-24.806082 -7.34686,-28.5 l -2.68502,-5.5 h -5.5 -5.5 l -0.29622,4.540099 c -0.17282,2.648759 0.80787,8.68925 2.35411,14.5 1.45768,5.477946 3.09427,12.209901 3.63686,14.959901 0.5426,2.75 1.37971,6.575 1.86024,8.500004 0.48054,1.925 1.03752,6.403166 1.23774,9.951476 0.28044,4.96998 0.1164,6.0235 -0.71435,4.58774 -0.59311,-1.02505 -1.97838,-2.71367 -3.07838,-3.75248 -6.51805,-6.15548 -7.8022,-7.62378 -9.48651,-10.846896 -1.02324,-1.958082 -6.84487,-8.686165 -12.93696,-14.951293 -6.09209,-6.265128 -11.07653,-11.744914 -11.07653,-12.177302 0,-0.432388 -1.8324,-1.9429 -4.07199,-3.356694 -5.09307,-3.215114 -9.46208,-2.988306 -12.15148,0.63082 -1.90272,2.560493 -1.89677,2.728915 0.61826,17.5 4.47032,26.254695 6.65559,37.687125 9.06314,47.414615 1.29319,5.225 2.91075,12.33644 3.59459,15.80321 1.36941,6.9423 3.80345,10.82461 7.21741,11.5118 3.01503,0.6069 6.75899,-0.14575 9.48007,-1.90579 z m 170.63192,-8.80098 c 1.71495,-1.86547 4.6173,-6.85076 6.44968,-11.07842 l 3.33161,-7.68664 -1.20453,-18.56971 c -1.24426,-19.182436 -0.91349,-27.128971 1.56711,-37.647607 2.11615,-8.973274 1.89657,-12.294403 -1.00468,-15.195657 -1.92556,-1.925556 -3.09746,-2.333869 -5.25,-1.829196 -3.12084,0.731693 -10.27111,7.095261 -10.27111,9.141035 0,1.64595 -7.11793,10.715951 -16.7483,21.341467 -16.77527,18.508728 -23.69229,31.920468 -20.03497,38.846778 1.5369,2.91061 4.81882,3.90031 14.48662,4.36858 9.75781,0.47263 11.03008,1.67879 14.23887,13.49895 0.83564,3.07823 2.07352,4.85074 4.36225,6.24627 4.49189,2.73887 6.50302,2.45232 10.07745,-1.43585 z m -24.80867,-32.48972 c -0.9831,-1.59068 3.63417,-9.94359 10.62469,-19.220706 4.81037,-6.383838 6.37329,-7.885718 6.65952,-6.399425 0.67129,3.485737 -0.54782,16.939981 -1.76787,19.510381 -1.67448,3.52779 -14.09053,8.41676 -15.51634,6.10975 z m 188.39034,22.90743 c 1.5247,-1.08573 3.3695,-3.44823 4.0995,-5.25 0.7299,-1.80177 3.2643,-6.41431 5.632,-10.25009 5.6331,-9.12593 5.7215,-12.36144 0.4188,-15.34172 -4.4351,-2.49262 -9.3252,-2.83936 -11.0325,-0.78225 -0.6399,0.77103 -2.24,1.67208 -3.5558,2.00232 -1.3157,0.33024 -2.7079,1.61189 -3.0937,2.84811 -0.3858,1.23623 -1.2013,2.56754 -1.8123,2.95848 -0.6919,0.44274 -1.1124,4.46456 -1.1152,10.66427 0,9.15958 0.189,10.15969 2.4199,12.53919 2.9094,3.10313 4.3829,3.21524 8.0393,0.61169 z m -24.32285,-9.70109 c 1.92901,-1.47133 4.80638,-5.24862 6.39415,-8.39398 1.58777,-3.14535 4.7045,-7.81891 6.926,-10.38567 5.1912,-5.99792 5.2585,-8.76063 0.2891,-11.855716 -5.61923,-3.49981 -6.87282,-3.74502 -10.78632,-2.10986 -2.86515,1.19714 -4.16552,2.724846 -6.47371,7.605526 -1.58861,3.3591 -3.64071,9.30412 -4.56022,13.21115 -1.52827,6.49364 -1.53701,7.42573 -0.10182,10.85369 1.87021,4.46698 3.57629,4.68758 8.31282,1.07486 z M 525.76023,96.899939 c 5.15633,-2.367797 6.86705,-4.387927 9.41617,-11.119269 2.84961,-7.524826 2.69835,-14.553427 -0.46724,-21.711398 -4.27568,-9.66806 -8.94657,-13.288602 -17.14373,-13.288602 -3.9795,0 -5.84388,0.711866 -10.97194,4.189353 -7.72158,5.236217 -10.25923,9.539624 -11.02722,18.700207 -0.49213,5.870173 -0.24134,7.612637 1.6614,11.54318 5.37553,11.10436 18.28538,16.39205 28.53256,11.686529 z M 509.62431,82.61108 c -2.29178,-1.1097 -4.36408,-4.786302 -4.36408,-7.742604 0,-2.918449 3.80634,-6.940326 7.54549,-7.972754 4.77592,-1.318697 10.28517,0.284089 10.9299,3.1798 0.58557,2.630016 0.8956,6.613784 0.68013,8.73954 -0.38738,3.821885 -9.76681,6.228985 -14.79144,3.796018 z"
       id="path1" />
    <rect
       style="fill:#000000"
       id="rect2"
       width="40.100052"
       height="8.9111223"
       x="991.36237"
       y="544.02405" />
  </g>
</svg>
